<?xml version="1.0" encoding="UTF-8" standalone="no"?>
<!-- Created with Inkscape (http://www.inkscape.org/) -->

<svg
   xmlns:osb="http://www.openswatchbook.org/uri/2009/osb"
   xmlns:dc="http://purl.org/dc/elements/1.1/"
   xmlns:cc="http://creativecommons.org/ns#"
   xmlns:rdf="http://www.w3.org/1999/02/22-rdf-syntax-ns#"
   xmlns:svg="http://www.w3.org/2000/svg"
   xmlns="http://www.w3.org/2000/svg"
   xmlns:xlink="http://www.w3.org/1999/xlink"
   xmlns:sodipodi="http://sodipodi.sourceforge.net/DTD/sodipodi-0.dtd"
   xmlns:inkscape="http://www.inkscape.org/namespaces/inkscape"
   width="1000"
   height="750"
   viewBox="0 0 1000 750"
   id="svg2"
   version="1.1"
   inkscape:version="0.91 r13725"
   sodipodi:docname="svg-3-ink.svg">
  <defs
     id="defs4">
    <pattern
       inkscape:collect="always"
       xlink:href="#Polkadots-med"
       id="pattern10676"
       patternTransform="matrix(10,0,0,10,0,12.21957)" />
    <pattern
       inkscape:isstock="true"
       inkscape:stockid="Polka dots, medium"
       id="Polkadots-med"
       patternTransform="translate(0,0) scale(10,10)"
       height="10"
       width="10"
       patternUnits="userSpaceOnUse"
       inkscape:collect="always">
      <circle
         id="circle9496"
         r="0.15"
         cy="0.810"
         cx="2.567"
         style="fill:black;stroke:none" />
      <circle
         id="circle9498"
         r="0.15"
         cy="2.33"
         cx="3.048"
         style="fill:black;stroke:none" />
      <circle
         id="circle9500"
         r="0.15"
         cy="2.415"
         cx="4.418"
         style="fill:black;stroke:none" />
      <circle
         id="circle9502"
         r="0.15"
         cy="3.029"
         cx="1.844"
         style="fill:black;stroke:none" />
      <circle
         id="circle9504"
         r="0.15"
         cy="1.363"
         cx="6.08"
         style="fill:black;stroke:none" />
      <circle
         id="circle9506"
         r="0.15"
         cy="4.413"
         cx="5.819"
         style="fill:black;stroke:none" />
      <circle
         id="circle9508"
         r="0.15"
         cy="4.048"
         cx="4.305"
         style="fill:black;stroke:none" />
      <circle
         id="circle9510"
         r="0.15"
         cy="3.045"
         cx="5.541"
         style="fill:black;stroke:none" />
      <circle
         id="circle9512"
         r="0.15"
         cy="5.527"
         cx="4.785"
         style="fill:black;stroke:none" />
      <circle
         id="circle9514"
         r="0.15"
         cy="5.184"
         cx="2.667"
         style="fill:black;stroke:none" />
      <circle
         id="circle9516"
         r="0.15"
         cy="1.448"
         cx="7.965"
         style="fill:black;stroke:none" />
      <circle
         id="circle9518"
         r="0.15"
         cy="5.049"
         cx="7.047"
         style="fill:black;stroke:none" />
      <circle
         id="circle9520"
         r="0.15"
         cy="0.895"
         cx="4.340"
         style="fill:black;stroke:none" />
      <circle
         id="circle9522"
         r="0.15"
         cy="0.340"
         cx="7.125"
         style="fill:black;stroke:none" />
      <circle
         id="circle9524"
         r="0.15"
         cy="1.049"
         cx="9.553"
         style="fill:black;stroke:none" />
      <circle
         id="circle9526"
         r="0.15"
         cy="2.689"
         cx="7.006"
         style="fill:black;stroke:none" />
      <circle
         id="circle9528"
         r="0.15"
         cy="2.689"
         cx="8.909"
         style="fill:black;stroke:none" />
      <circle
         id="circle9530"
         r="0.15"
         cy="4.407"
         cx="9.315"
         style="fill:black;stroke:none" />
      <circle
         id="circle9532"
         r="0.15"
         cy="3.870"
         cx="7.820"
         style="fill:black;stroke:none" />
      <circle
         id="circle9534"
         r="0.15"
         cy="5.948"
         cx="8.270"
         style="fill:black;stroke:none" />
      <circle
         id="circle9536"
         r="0.15"
         cy="7.428"
         cx="7.973"
         style="fill:black;stroke:none" />
      <circle
         id="circle9538"
         r="0.15"
         cy="8.072"
         cx="9.342"
         style="fill:black;stroke:none" />
      <circle
         id="circle9540"
         r="0.15"
         cy="9.315"
         cx="8.206"
         style="fill:black;stroke:none" />
      <circle
         id="circle9542"
         r="0.15"
         cy="9.475"
         cx="9.682"
         style="fill:black;stroke:none" />
      <circle
         id="circle9544"
         r="0.15"
         cy="6.186"
         cx="9.688"
         style="fill:black;stroke:none" />
      <circle
         id="circle9546"
         r="0.15"
         cy="6.296"
         cx="3.379"
         style="fill:black;stroke:none" />
      <circle
         id="circle9548"
         r="0.15"
         cy="8.204"
         cx="2.871"
         style="fill:black;stroke:none" />
      <circle
         id="circle9550"
         r="0.15"
         cy="8.719"
         cx="4.59"
         style="fill:black;stroke:none" />
      <circle
         id="circle9552"
         r="0.15"
         cy="9.671"
         cx="3.181"
         style="fill:black;stroke:none" />
      <circle
         id="circle9554"
         r="0.15"
         cy="7.315"
         cx="5.734"
         style="fill:black;stroke:none" />
      <circle
         id="circle9556"
         r="0.15"
         cy="6.513"
         cx="6.707"
         style="fill:black;stroke:none" />
      <circle
         id="circle9558"
         r="0.15"
         cy="9.670"
         cx="5.730"
         style="fill:black;stroke:none" />
      <circle
         id="circle9560"
         r="0.15"
         cy="8.373"
         cx="6.535"
         style="fill:black;stroke:none" />
      <circle
         id="circle9562"
         r="0.15"
         cy="7.154"
         cx="4.37"
         style="fill:black;stroke:none" />
      <circle
         id="circle9564"
         r="0.15"
         cy="7.25"
         cx="0.622"
         style="fill:black;stroke:none" />
      <circle
         id="circle9566"
         r="0.15"
         cy="5.679"
         cx="0.831"
         style="fill:black;stroke:none" />
      <circle
         id="circle9568"
         r="0.15"
         cy="8.519"
         cx="1.257"
         style="fill:black;stroke:none" />
      <circle
         id="circle9570"
         r="0.15"
         cy="6.877"
         cx="1.989"
         style="fill:black;stroke:none" />
      <circle
         id="circle9572"
         r="0.15"
         cy="3.181"
         cx="0.374"
         style="fill:black;stroke:none" />
      <circle
         id="circle9574"
         r="0.15"
         cy="1.664"
         cx="1.166"
         style="fill:black;stroke:none" />
      <circle
         id="circle9576"
         r="0.15"
         cy="0.093"
         cx="1.151"
         style="fill:black;stroke:none" />
      <circle
         id="circle9578"
         r="0.15"
         cy="10.093"
         cx="1.151"
         style="fill:black;stroke:none" />
      <circle
         id="circle9580"
         r="0.15"
         cy="4.451"
         cx="1.302"
         style="fill:black;stroke:none" />
      <circle
         id="circle9582"
         r="0.15"
         cy="3.763"
         cx="3.047"
         style="fill:black;stroke:none" />
    </pattern>
    <linearGradient
       id="linearGradient10179"
       osb:paint="solid">
      <stop
         style="stop-color:#784421;stop-opacity:1;"
         offset="0"
         id="stop10181" />
    </linearGradient>
    <inkscape:perspective
       sodipodi:type="inkscape:persp3d"
       inkscape:vp_x="0 : 375 : 1"
       inkscape:vp_y="0 : 1000 : 0"
       inkscape:vp_z="1000 : 375 : 1"
       inkscape:persp3d-origin="500 : 250 : 1"
       id="perspective8158" />
    <linearGradient
       inkscape:collect="always"
       id="linearGradient6323">
      <stop
         style="stop-color:#52c7ff;stop-opacity:1;"
         offset="0"
         id="stop6325" />
      <stop
         style="stop-color:#52c7ff;stop-opacity:0;"
         offset="1"
         id="stop6327" />
    </linearGradient>
    <linearGradient
       inkscape:collect="always"
       xlink:href="#linearGradient6323"
       id="linearGradient6329"
       x1="460"
       y1="1112.3622"
       x2="460"
       y2="72.362183"
       gradientUnits="userSpaceOnUse" />
    <filter
       inkscape:collect="always"
       style="color-interpolation-filters:sRGB"
       id="filter6755"
       x="-0.059585135"
       width="1.1191703"
       y="-0.11287607"
       height="1.2257521">
      <feGaussianBlur
         inkscape:collect="always"
         stdDeviation="16.487388"
         id="feGaussianBlur6757" />
    </filter>
    <filter
       inkscape:collect="always"
       style="color-interpolation-filters:sRGB"
       id="filter6759"
       x="-0.058073914"
       width="1.1161478"
       y="-0.13469244"
       height="1.2693849">
      <feGaussianBlur
         inkscape:collect="always"
         stdDeviation="16.487388"
         id="feGaussianBlur6761" />
    </filter>
    <filter
       inkscape:collect="always"
       style="color-interpolation-filters:sRGB"
       id="filter6763"
       x="-0.056438033"
       width="1.1128761"
       y="-0.15121132"
       height="1.3024226">
      <feGaussianBlur
         inkscape:collect="always"
         stdDeviation="16.487388"
         id="feGaussianBlur6765" />
    </filter>
    <filter
       inkscape:collect="always"
       style="color-interpolation-filters:sRGB"
       id="filter7117"
       x="-0.041902325"
       width="1.0838047"
       y="-0.15532759"
       height="1.3106552">
      <feGaussianBlur
         inkscape:collect="always"
         stdDeviation="9.2669807"
         id="feGaussianBlur7119" />
    </filter>
    <filter
       inkscape:collect="always"
       style="color-interpolation-filters:sRGB"
       id="filter7179"
       x="-0.041105264"
       width="1.0822105"
       y="-0.16735714"
       height="1.3347143">
      <feGaussianBlur
         inkscape:collect="always"
         stdDeviation="4.8201874"
         id="feGaussianBlur7181" />
    </filter>
    <filter
       inkscape:collect="always"
       style="color-interpolation-filters:sRGB"
       id="filter7539"
       x="-0.080663415"
       width="1.1613268"
       y="-0.2756"
       height="1.5512">
      <feGaussianBlur
         inkscape:collect="always"
         stdDeviation="3.4019044"
         id="feGaussianBlur7541" />
    </filter>
    <filter
       inkscape:collect="always"
       style="color-interpolation-filters:sRGB"
       id="filter8141"
       x="-0.082457143"
       width="1.1649143"
       y="-0.25653333"
       height="1.5130667">
      <feGaussianBlur
         inkscape:collect="always"
         stdDeviation="2.3749144"
         id="feGaussianBlur8143" />
    </filter>
    <filter
       inkscape:collect="always"
       style="color-interpolation-filters:sRGB"
       id="filter8372"
       x="-0.075365217"
       width="1.1507304"
       y="-0.43335"
       height="1.8667">
      <feGaussianBlur
         inkscape:collect="always"
         stdDeviation="3.5660746"
         id="feGaussianBlur8374" />
    </filter>
    <filter
       inkscape:collect="always"
       style="color-interpolation-filters:sRGB"
       id="filter8442"
       x="-0.046437566"
       width="1.0928751"
       y="-0.36437389"
       height="1.7287478">
      <feGaussianBlur
         inkscape:collect="always"
         stdDeviation="21.683323"
         id="feGaussianBlur8444" />
    </filter>
    <filter
       inkscape:collect="always"
       style="color-interpolation-filters:sRGB"
       id="filter8494"
       x="-0.049934759"
       width="1.0998695"
       y="-0.93378002"
       height="2.86756">
      <feGaussianBlur
         inkscape:collect="always"
         stdDeviation="9.6051957"
         id="feGaussianBlur8496" />
    </filter>
    <filter
       inkscape:collect="always"
       style="color-interpolation-filters:sRGB"
       id="filter10426"
       x="-0.0027029543"
       width="1.0054059"
       y="-0.021412766"
       height="1.0428255">
      <feGaussianBlur
         inkscape:collect="always"
         stdDeviation="1.5528286"
         id="feGaussianBlur10428" />
    </filter>
  </defs>
  <sodipodi:namedview
     id="base"
     pagecolor="#ffffff"
     bordercolor="#666666"
     borderopacity="1.0"
     inkscape:pageopacity="0.0"
     inkscape:pageshadow="2"
     inkscape:zoom="0.70710678"
     inkscape:cx="421.67364"
     inkscape:cy="343.76986"
     inkscape:document-units="px"
     inkscape:current-layer="layer4"
     showgrid="false"
     showguides="true"
     inkscape:window-width="1680"
     inkscape:window-height="987"
     inkscape:window-x="-8"
     inkscape:window-y="-8"
     inkscape:window-maximized="1"
     units="px"
     borderlayer="false"
     showborder="true">
    <inkscape:grid
       type="xygrid"
       id="grid4686" />
  </sodipodi:namedview>
  <metadata
     id="metadata7">
    <rdf:RDF>
      <cc:Work
         rdf:about="">
        <dc:format>image/svg+xml</dc:format>
        <dc:type
           rdf:resource="http://purl.org/dc/dcmitype/StillImage" />
        <dc:title></dc:title>
      </cc:Work>
    </rdf:RDF>
  </metadata>
  <g
     inkscape:label="sky"
     inkscape:groupmode="layer"
     id="layer1"
     style="display:inline"
     transform="translate(0,-302.36218)">
    <rect
       style="opacity:1;fill:url(#linearGradient6329);fill-opacity:1;fill-rule:nonzero;stroke:#6464ff;stroke-width:0.99491066;stroke-miterlimit:4;stroke-dasharray:none;stroke-opacity:1"
       id="rect6321"
       width="1297.0253"
       height="850.138"
       x="-146.63739"
       y="261.57886" />
    <ellipse
       style="opacity:0.53600003;fill:#ffffff;fill-opacity:1;fill-rule:nonzero;stroke:#6464ff;stroke-width:1;stroke-miterlimit:1;stroke-dasharray:none;stroke-opacity:1;filter:url(#filter8494)"
       id="path8402"
       cx="-736.29755"
       cy="350.00961"
       rx="230.82588"
       ry="12.34363"
       transform="matrix(0.96335157,0,0,1.9396743,-21.429513,-324.26616)" />
    <ellipse
       style="opacity:0.53600003;fill:#ffffff;fill-opacity:1;fill-rule:nonzero;stroke:#6464ff;stroke-width:1.85003877;stroke-miterlimit:1;stroke-dasharray:none;stroke-opacity:1;filter:url(#filter8442)"
       id="path8404"
       cx="-1480.4801"
       cy="858.11255"
       rx="150.77878"
       ry="67.0979"
       transform="matrix(0.99374101,-0.11170861,0.98301806,0.18350884,0,0)" />
  </g>
  <g
     inkscape:groupmode="layer"
     id="layer5"
     inkscape:label="ground"
     style="display:inline">
    <rect
       style="opacity:1;fill:#784421;fill-opacity:1;fill-rule:nonzero;stroke:#6464ff;stroke-width:0;stroke-miterlimit:0;stroke-dasharray:none;stroke-opacity:1"
       id="rect8501"
       width="1406.7039"
       height="174.03514"
       x="-195.9592"
       y="712.65326" />
    <rect
       y="712.64825"
       x="-195.96422"
       height="174.04518"
       width="1378.7834"
       id="rect10177"
       style="opacity:1;fill:url(#pattern10676);fill-opacity:1;fill-rule:nonzero;stroke:#6464ff;stroke-width:0;stroke-miterlimit:0;stroke-dasharray:none;stroke-opacity:1;filter:url(#filter10426)"
       transform="matrix(1.0151914,0,0,0.99968382,7.3202501,0.25280598)" />
    <path
       style="opacity:1;fill:#00ff00;fill-opacity:1;fill-rule:nonzero;stroke:#6464ff;stroke-width:0;stroke-miterlimit:0;stroke-dasharray:none;stroke-opacity:1"
       id="path10520"
       sodipodi:type="arc"
       sodipodi:cx="147.58345"
       sodipodi:cy="710.58551"
       sodipodi:rx="47.688824"
       sodipodi:ry="26.619003"
       sodipodi:start="0"
       sodipodi:end="3.1415927"
       sodipodi:open="true"
       d="m 195.27227,710.58551 a 47.688824,26.619003 0 0 1 -23.84441,23.05273 47.688824,26.619003 0 0 1 -47.68882,0 47.688824,26.619003 0 0 1 -23.844413,-23.05273" />
    <path
       d="m 264.91687,710.58551 a 47.688824,26.619003 0 0 1 -23.84442,23.05273 47.688824,26.619003 0 0 1 -47.68882,0 47.688824,26.619003 0 0 1 -23.84441,-23.05273"
       sodipodi:open="true"
       sodipodi:end="3.1415927"
       sodipodi:start="0"
       sodipodi:ry="26.619003"
       sodipodi:rx="47.688824"
       sodipodi:cy="710.58551"
       sodipodi:cx="217.22804"
       sodipodi:type="arc"
       id="path10522"
       style="opacity:1;fill:#00ff00;fill-opacity:1;fill-rule:nonzero;stroke:#6464ff;stroke-width:0;stroke-miterlimit:0;stroke-dasharray:none;stroke-opacity:1" />
    <path
       d="m 343.76869,710.58551 a 47.688824,26.619003 0 0 1 -23.84441,23.05273 47.688824,26.619003 0 0 1 -47.68883,0 47.688824,26.619003 0 0 1 -23.84441,-23.05273"
       sodipodi:open="true"
       sodipodi:end="3.1415927"
       sodipodi:start="0"
       sodipodi:ry="26.619003"
       sodipodi:rx="47.688824"
       sodipodi:cy="710.58551"
       sodipodi:cx="296.07986"
       sodipodi:type="arc"
       id="path10526"
       style="opacity:1;fill:#00ff00;fill-opacity:1;fill-rule:nonzero;stroke:#6464ff;stroke-width:0;stroke-miterlimit:0;stroke-dasharray:none;stroke-opacity:1" />
    <path
       style="opacity:1;fill:#00ff00;fill-opacity:1;fill-rule:nonzero;stroke:#6464ff;stroke-width:0;stroke-miterlimit:0;stroke-dasharray:none;stroke-opacity:1"
       id="path10528"
       sodipodi:type="arc"
       sodipodi:cx="365.7244"
       sodipodi:cy="710.58551"
       sodipodi:rx="47.688824"
       sodipodi:ry="26.619003"
       sodipodi:start="0"
       sodipodi:end="3.1415927"
       sodipodi:open="true"
       d="m 413.41322,710.58551 a 47.688824,26.619003 0 0 1 -23.84441,23.05273 47.688824,26.619003 0 0 1 -47.68883,0 47.688824,26.619003 0 0 1 -23.84441,-23.05273" />
    <rect
       style="opacity:1;fill:#784421;fill-opacity:1;fill-rule:nonzero;stroke:#6464ff;stroke-width:0;stroke-miterlimit:0;stroke-dasharray:none;stroke-opacity:1"
       id="rect10880"
       width="0.72737688"
       height="2.0864267"
       x="-195.959"
       y="710.58545" />
    <path
       d="m -103.60918,710.59827 a 46.163177,26.593544 0 0 1 -23.08159,23.03068 46.163177,26.593544 0 0 1 -46.16317,0 46.163177,26.593544 0 0 1 -23.08159,-23.03068"
       sodipodi:open="true"
       sodipodi:end="3.1415927"
       sodipodi:start="0"
       sodipodi:ry="26.593544"
       sodipodi:rx="46.163177"
       sodipodi:cy="710.59827"
       sodipodi:cx="-149.77235"
       sodipodi:type="arc"
       id="path10530"
       style="opacity:1;fill:#00ff00;fill-opacity:1;fill-rule:nonzero;stroke:#6464ff;stroke-width:0;stroke-miterlimit:0;stroke-dasharray:none;stroke-opacity:1" />
    <path
       style="opacity:1;fill:#00ff00;fill-opacity:1;fill-rule:nonzero;stroke:#6464ff;stroke-width:0;stroke-miterlimit:0;stroke-dasharray:none;stroke-opacity:1"
       id="path10532"
       sodipodi:type="arc"
       sodipodi:cx="-81.653412"
       sodipodi:cy="710.58551"
       sodipodi:rx="47.688824"
       sodipodi:ry="26.619003"
       sodipodi:start="0"
       sodipodi:end="3.1415927"
       sodipodi:open="true"
       d="m -33.964588,710.58551 a 47.688824,26.619003 0 0 1 -23.844413,23.05273 47.688824,26.619003 0 0 1 -47.688819,0 47.688824,26.619003 0 0 1 -23.84442,-23.05273" />
    <path
       style="opacity:1;fill:#00ff00;fill-opacity:1;fill-rule:nonzero;stroke:#6464ff;stroke-width:0;stroke-miterlimit:0;stroke-dasharray:none;stroke-opacity:1"
       id="path10534"
       sodipodi:type="arc"
       sodipodi:cx="-2.8015862"
       sodipodi:cy="710.58551"
       sodipodi:rx="47.688824"
       sodipodi:ry="26.619003"
       sodipodi:start="0"
       sodipodi:end="3.1415927"
       sodipodi:open="true"
       d="m 44.887238,710.58551 a 47.688824,26.619003 0 0 1 -23.844413,23.05273 47.688824,26.619003 0 0 1 -47.688824,0 47.688824,26.619003 0 0 1 -23.844411,-23.05273" />
    <path
       d="m 114.5318,710.58551 a 47.688824,26.619003 0 0 1 -23.844417,23.05273 47.688824,26.619003 0 0 1 -47.688824,0 47.688824,26.619003 0 0 1 -23.844411,-23.05273"
       sodipodi:open="true"
       sodipodi:end="3.1415927"
       sodipodi:start="0"
       sodipodi:ry="26.619003"
       sodipodi:rx="47.688824"
       sodipodi:cy="710.58551"
       sodipodi:cx="66.842972"
       sodipodi:type="arc"
       id="path10536"
       style="opacity:1;fill:#00ff00;fill-opacity:1;fill-rule:nonzero;stroke:#6464ff;stroke-width:0;stroke-miterlimit:0;stroke-dasharray:none;stroke-opacity:1" />
    <path
       d="m 786.53215,710.58551 a 47.688824,26.619003 0 0 1 -23.84442,23.05273 47.688824,26.619003 0 0 1 -47.68882,0 47.688824,26.619003 0 0 1 -23.84441,-23.05273"
       sodipodi:open="true"
       sodipodi:end="3.1415927"
       sodipodi:start="0"
       sodipodi:ry="26.619003"
       sodipodi:rx="47.688824"
       sodipodi:cy="710.58551"
       sodipodi:cx="738.84332"
       sodipodi:type="arc"
       id="path10602"
       style="opacity:1;fill:#00ff00;fill-opacity:1;fill-rule:nonzero;stroke:#6464ff;stroke-width:0;stroke-miterlimit:0;stroke-dasharray:none;stroke-opacity:1" />
    <path
       style="opacity:1;fill:#00ff00;fill-opacity:1;fill-rule:nonzero;stroke:#6464ff;stroke-width:0;stroke-miterlimit:0;stroke-dasharray:none;stroke-opacity:1"
       id="path10604"
       sodipodi:type="arc"
       sodipodi:cx="808.48792"
       sodipodi:cy="710.58551"
       sodipodi:rx="47.688824"
       sodipodi:ry="26.619003"
       sodipodi:start="0"
       sodipodi:end="3.1415927"
       sodipodi:open="true"
       d="m 856.17674,710.58551 a 47.688824,26.619003 0 0 1 -23.84441,23.05273 47.688824,26.619003 0 0 1 -47.68883,0 47.688824,26.619003 0 0 1 -23.84441,-23.05273" />
    <path
       style="opacity:1;fill:#00ff00;fill-opacity:1;fill-rule:nonzero;stroke:#6464ff;stroke-width:0;stroke-miterlimit:0;stroke-dasharray:none;stroke-opacity:1"
       id="path10606"
       sodipodi:type="arc"
       sodipodi:cx="887.33972"
       sodipodi:cy="710.58551"
       sodipodi:rx="47.688824"
       sodipodi:ry="26.619003"
       sodipodi:start="0"
       sodipodi:end="3.1415927"
       sodipodi:open="true"
       d="m 935.02855,710.58551 a 47.688824,26.619003 0 0 1 -23.84442,23.05273 47.688824,26.619003 0 0 1 -47.68882,0 47.688824,26.619003 0 0 1 -23.84441,-23.05273" />
    <path
       d="m 1004.6731,710.58551 a 47.688824,26.619003 0 0 1 -23.84444,23.05273 47.688824,26.619003 0 0 1 -47.68882,0 47.688824,26.619003 0 0 1 -23.84441,-23.05273"
       sodipodi:open="true"
       sodipodi:end="3.1415927"
       sodipodi:start="0"
       sodipodi:ry="26.619003"
       sodipodi:rx="47.688824"
       sodipodi:cy="710.58551"
       sodipodi:cx="956.98425"
       sodipodi:type="arc"
       id="path10608"
       style="opacity:1;fill:#00ff00;fill-opacity:1;fill-rule:nonzero;stroke:#6464ff;stroke-width:0;stroke-miterlimit:0;stroke-dasharray:none;stroke-opacity:1" />
    <path
       style="opacity:1;fill:#00ff00;fill-opacity:1;fill-rule:nonzero;stroke:#6464ff;stroke-width:0;stroke-miterlimit:0;stroke-dasharray:none;stroke-opacity:1"
       id="path10610"
       sodipodi:type="arc"
       sodipodi:cx="439.96188"
       sodipodi:cy="710.58551"
       sodipodi:rx="47.688824"
       sodipodi:ry="26.619003"
       sodipodi:start="0"
       sodipodi:end="3.1415927"
       sodipodi:open="true"
       d="m 487.65071,710.58551 a 47.688824,26.619003 0 0 1 -23.84442,23.05273 47.688824,26.619003 0 0 1 -47.68882,0 47.688824,26.619003 0 0 1 -23.84441,-23.05273" />
    <path
       d="m 557.2953,710.58551 a 47.688824,26.619003 0 0 1 -23.84441,23.05273 47.688824,26.619003 0 0 1 -47.68883,0 47.688824,26.619003 0 0 1 -23.84441,-23.05273"
       sodipodi:open="true"
       sodipodi:end="3.1415927"
       sodipodi:start="0"
       sodipodi:ry="26.619003"
       sodipodi:rx="47.688824"
       sodipodi:cy="710.58551"
       sodipodi:cx="509.60648"
       sodipodi:type="arc"
       id="path10612"
       style="opacity:1;fill:#00ff00;fill-opacity:1;fill-rule:nonzero;stroke:#6464ff;stroke-width:0;stroke-miterlimit:0;stroke-dasharray:none;stroke-opacity:1" />
    <path
       d="m 636.14714,710.58551 a 47.688824,26.619003 0 0 1 -23.84442,23.05273 47.688824,26.619003 0 0 1 -47.68882,0 47.688824,26.619003 0 0 1 -23.84441,-23.05273"
       sodipodi:open="true"
       sodipodi:end="3.1415927"
       sodipodi:start="0"
       sodipodi:ry="26.619003"
       sodipodi:rx="47.688824"
       sodipodi:cy="710.58551"
       sodipodi:cx="588.45831"
       sodipodi:type="arc"
       id="path10614"
       style="opacity:1;fill:#00ff00;fill-opacity:1;fill-rule:nonzero;stroke:#6464ff;stroke-width:0;stroke-miterlimit:0;stroke-dasharray:none;stroke-opacity:1" />
    <path
       style="opacity:1;fill:#00ff00;fill-opacity:1;fill-rule:nonzero;stroke:#6464ff;stroke-width:0;stroke-miterlimit:0;stroke-dasharray:none;stroke-opacity:1"
       id="path10616"
       sodipodi:type="arc"
       sodipodi:cx="658.10284"
       sodipodi:cy="710.58551"
       sodipodi:rx="47.688824"
       sodipodi:ry="26.619003"
       sodipodi:start="0"
       sodipodi:end="3.1415927"
       sodipodi:open="true"
       d="m 705.79167,710.58551 a 47.688824,26.619003 0 0 1 -23.84441,23.05273 47.688824,26.619003 0 0 1 -47.68883,0 47.688824,26.619003 0 0 1 -23.84441,-23.05273" />
    <path
       d="m 1062.8638,710.58551 a 47.688824,26.619003 0 0 1 -23.8444,23.05273 47.688824,26.619003 0 0 1 -47.68883,0 47.688824,26.619003 0 0 1 -23.84441,-23.05273"
       sodipodi:open="true"
       sodipodi:end="3.1415927"
       sodipodi:start="0"
       sodipodi:ry="26.619003"
       sodipodi:rx="47.688824"
       sodipodi:cy="710.58551"
       sodipodi:cx="1015.175"
       sodipodi:type="arc"
       id="path10626"
       style="opacity:1;fill:#00ff00;fill-opacity:1;fill-rule:nonzero;stroke:#6464ff;stroke-width:0;stroke-miterlimit:0;stroke-dasharray:none;stroke-opacity:1" />
    <path
       style="opacity:1;fill:#00ff00;fill-opacity:1;fill-rule:nonzero;stroke:#6464ff;stroke-width:0;stroke-miterlimit:0;stroke-dasharray:none;stroke-opacity:1"
       id="path10628"
       sodipodi:type="arc"
       sodipodi:cx="1084.8196"
       sodipodi:cy="710.58551"
       sodipodi:rx="47.688824"
       sodipodi:ry="26.619003"
       sodipodi:start="0"
       sodipodi:end="3.1415927"
       sodipodi:open="true"
       d="m 1132.5084,710.58551 a 47.688824,26.619003 0 0 1 -23.8444,23.05273 47.688824,26.619003 0 0 1 -47.6888,0 47.688824,26.619003 0 0 1 -23.8444,-23.05273" />
    <path
       style="opacity:1;fill:#00ff00;fill-opacity:1;fill-rule:nonzero;stroke:#6464ff;stroke-width:0;stroke-miterlimit:0;stroke-dasharray:none;stroke-opacity:1"
       id="path10630"
       sodipodi:type="arc"
       sodipodi:cx="1163.6715"
       sodipodi:cy="710.58551"
       sodipodi:rx="47.688824"
       sodipodi:ry="26.619003"
       sodipodi:start="0"
       sodipodi:end="3.1415927"
       sodipodi:open="true"
       d="m 1211.3603,710.58551 a 47.688824,26.619003 0 0 1 -23.8444,23.05273 47.688824,26.619003 0 0 1 -47.6888,0 47.688824,26.619003 0 0 1 -23.8444,-23.05273" />
    <path
       d="m 195.27227,710.58551 a 47.688824,24.511814 0 0 1 -23.84441,21.22785 47.688824,24.511814 0 0 1 -47.68882,0 47.688824,24.511814 0 0 1 -23.844413,-21.22785"
       sodipodi:open="true"
       sodipodi:end="3.1415927"
       sodipodi:start="0"
       sodipodi:ry="24.511814"
       sodipodi:rx="47.688824"
       sodipodi:cy="710.58551"
       sodipodi:cx="147.58345"
       sodipodi:type="arc"
       id="path10634"
       style="opacity:1;fill:#008000;fill-opacity:1;fill-rule:nonzero;stroke:#6464ff;stroke-width:0;stroke-miterlimit:0;stroke-dasharray:none;stroke-opacity:1" />
    <path
       style="opacity:1;fill:#008000;fill-opacity:1;fill-rule:nonzero;stroke:#6464ff;stroke-width:0;stroke-miterlimit:0;stroke-dasharray:none;stroke-opacity:1"
       id="path10636"
       sodipodi:type="arc"
       sodipodi:cx="217.22804"
       sodipodi:cy="710.58551"
       sodipodi:rx="47.688824"
       sodipodi:ry="24.511814"
       sodipodi:start="0"
       sodipodi:end="3.1415927"
       sodipodi:open="true"
       d="m 264.91687,710.58551 a 47.688824,24.511814 0 0 1 -23.84442,21.22785 47.688824,24.511814 0 0 1 -47.68882,0 47.688824,24.511814 0 0 1 -23.84441,-21.22785" />
    <path
       style="opacity:1;fill:#008000;fill-opacity:1;fill-rule:nonzero;stroke:#6464ff;stroke-width:0;stroke-miterlimit:0;stroke-dasharray:none;stroke-opacity:1"
       id="path10638"
       sodipodi:type="arc"
       sodipodi:cx="296.07986"
       sodipodi:cy="710.58551"
       sodipodi:rx="47.688824"
       sodipodi:ry="24.511814"
       sodipodi:start="0"
       sodipodi:end="3.1415927"
       sodipodi:open="true"
       d="m 343.76869,710.58551 a 47.688824,24.511814 0 0 1 -23.84441,21.22785 47.688824,24.511814 0 0 1 -47.68883,0 47.688824,24.511814 0 0 1 -23.84441,-21.22785" />
    <path
       d="m 413.41322,710.58551 a 47.688824,24.511814 0 0 1 -23.84441,21.22785 47.688824,24.511814 0 0 1 -47.68883,0 47.688824,24.511814 0 0 1 -23.84441,-21.22785"
       sodipodi:open="true"
       sodipodi:end="3.1415927"
       sodipodi:start="0"
       sodipodi:ry="24.511814"
       sodipodi:rx="47.688824"
       sodipodi:cy="710.58551"
       sodipodi:cx="365.7244"
       sodipodi:type="arc"
       id="path10640"
       style="opacity:1;fill:#008000;fill-opacity:1;fill-rule:nonzero;stroke:#6464ff;stroke-width:0;stroke-miterlimit:0;stroke-dasharray:none;stroke-opacity:1" />
    <path
       style="opacity:1;fill:#008000;fill-opacity:1;fill-rule:nonzero;stroke:#6464ff;stroke-width:0;stroke-miterlimit:0;stroke-dasharray:none;stroke-opacity:1"
       id="path10642"
       sodipodi:type="arc"
       sodipodi:cx="-149.72209"
       sodipodi:cy="710.58551"
       sodipodi:rx="46.112915"
       sodipodi:ry="24.511814"
       sodipodi:start="0"
       sodipodi:end="3.1415927"
       sodipodi:open="true"
       d="m -103.60918,710.58551 a 46.112915,24.511814 0 0 1 -23.05645,21.22785 46.112915,24.511814 0 0 1 -46.11292,0 46.112915,24.511814 0 0 1 -23.05646,-21.22785" />
    <path
       d="m -33.964588,710.58551 a 47.688824,24.511814 0 0 1 -23.844413,21.22785 47.688824,24.511814 0 0 1 -47.688819,0 47.688824,24.511814 0 0 1 -23.84442,-21.22785"
       sodipodi:open="true"
       sodipodi:end="3.1415927"
       sodipodi:start="0"
       sodipodi:ry="24.511814"
       sodipodi:rx="47.688824"
       sodipodi:cy="710.58551"
       sodipodi:cx="-81.653412"
       sodipodi:type="arc"
       id="path10644"
       style="opacity:1;fill:#008000;fill-opacity:1;fill-rule:nonzero;stroke:#6464ff;stroke-width:0;stroke-miterlimit:0;stroke-dasharray:none;stroke-opacity:1" />
    <path
       d="m 44.887238,710.58551 a 47.688824,24.511814 0 0 1 -23.844413,21.22785 47.688824,24.511814 0 0 1 -47.688824,0 47.688824,24.511814 0 0 1 -23.844411,-21.22785"
       sodipodi:open="true"
       sodipodi:end="3.1415927"
       sodipodi:start="0"
       sodipodi:ry="24.511814"
       sodipodi:rx="47.688824"
       sodipodi:cy="710.58551"
       sodipodi:cx="-2.8015859"
       sodipodi:type="arc"
       id="path10646"
       style="opacity:1;fill:#008000;fill-opacity:1;fill-rule:nonzero;stroke:#6464ff;stroke-width:0;stroke-miterlimit:0;stroke-dasharray:none;stroke-opacity:1" />
    <path
       style="opacity:1;fill:#008000;fill-opacity:1;fill-rule:nonzero;stroke:#6464ff;stroke-width:0;stroke-miterlimit:0;stroke-dasharray:none;stroke-opacity:1"
       id="path10648"
       sodipodi:type="arc"
       sodipodi:cx="66.842972"
       sodipodi:cy="710.58551"
       sodipodi:rx="47.688824"
       sodipodi:ry="24.511814"
       sodipodi:start="0"
       sodipodi:end="3.1415927"
       sodipodi:open="true"
       d="m 114.5318,710.58551 a 47.688824,24.511814 0 0 1 -23.844417,21.22785 47.688824,24.511814 0 0 1 -47.688824,0 47.688824,24.511814 0 0 1 -23.844411,-21.22785" />
    <path
       style="opacity:1;fill:#008000;fill-opacity:1;fill-rule:nonzero;stroke:#6464ff;stroke-width:0;stroke-miterlimit:0;stroke-dasharray:none;stroke-opacity:1"
       id="path10650"
       sodipodi:type="arc"
       sodipodi:cx="738.84332"
       sodipodi:cy="710.58551"
       sodipodi:rx="47.688824"
       sodipodi:ry="24.511814"
       sodipodi:start="0"
       sodipodi:end="3.1415927"
       sodipodi:open="true"
       d="m 786.53215,710.58551 a 47.688824,24.511814 0 0 1 -23.84442,21.22785 47.688824,24.511814 0 0 1 -47.68882,0 47.688824,24.511814 0 0 1 -23.84441,-21.22785" />
    <path
       d="m 856.17674,710.58551 a 47.688824,24.511814 0 0 1 -23.84441,21.22785 47.688824,24.511814 0 0 1 -47.68883,0 47.688824,24.511814 0 0 1 -23.84441,-21.22785"
       sodipodi:open="true"
       sodipodi:end="3.1415927"
       sodipodi:start="0"
       sodipodi:ry="24.511814"
       sodipodi:rx="47.688824"
       sodipodi:cy="710.58551"
       sodipodi:cx="808.48792"
       sodipodi:type="arc"
       id="path10652"
       style="opacity:1;fill:#008000;fill-opacity:1;fill-rule:nonzero;stroke:#6464ff;stroke-width:0;stroke-miterlimit:0;stroke-dasharray:none;stroke-opacity:1" />
    <path
       d="m 935.02855,710.58551 a 47.688824,24.511814 0 0 1 -23.84442,21.22785 47.688824,24.511814 0 0 1 -47.68882,0 47.688824,24.511814 0 0 1 -23.84441,-21.22785"
       sodipodi:open="true"
       sodipodi:end="3.1415927"
       sodipodi:start="0"
       sodipodi:ry="24.511814"
       sodipodi:rx="47.688824"
       sodipodi:cy="710.58551"
       sodipodi:cx="887.33972"
       sodipodi:type="arc"
       id="path10654"
       style="opacity:1;fill:#008000;fill-opacity:1;fill-rule:nonzero;stroke:#6464ff;stroke-width:0;stroke-miterlimit:0;stroke-dasharray:none;stroke-opacity:1" />
    <path
       style="opacity:1;fill:#008000;fill-opacity:1;fill-rule:nonzero;stroke:#6464ff;stroke-width:0;stroke-miterlimit:0;stroke-dasharray:none;stroke-opacity:1"
       id="path10656"
       sodipodi:type="arc"
       sodipodi:cx="956.98425"
       sodipodi:cy="710.58551"
       sodipodi:rx="47.688824"
       sodipodi:ry="24.511814"
       sodipodi:start="0"
       sodipodi:end="3.1415927"
       sodipodi:open="true"
       d="m 1004.6731,710.58551 a 47.688824,24.511814 0 0 1 -23.84444,21.22785 47.688824,24.511814 0 0 1 -47.68882,0 47.688824,24.511814 0 0 1 -23.84441,-21.22785" />
    <path
       d="m 487.65071,710.58551 a 47.688824,24.511814 0 0 1 -23.84442,21.22785 47.688824,24.511814 0 0 1 -47.68882,0 47.688824,24.511814 0 0 1 -23.84441,-21.22785"
       sodipodi:open="true"
       sodipodi:end="3.1415927"
       sodipodi:start="0"
       sodipodi:ry="24.511814"
       sodipodi:rx="47.688824"
       sodipodi:cy="710.58551"
       sodipodi:cx="439.96188"
       sodipodi:type="arc"
       id="path10658"
       style="opacity:1;fill:#008000;fill-opacity:1;fill-rule:nonzero;stroke:#6464ff;stroke-width:0;stroke-miterlimit:0;stroke-dasharray:none;stroke-opacity:1" />
    <path
       style="opacity:1;fill:#008000;fill-opacity:1;fill-rule:nonzero;stroke:#6464ff;stroke-width:0;stroke-miterlimit:0;stroke-dasharray:none;stroke-opacity:1"
       id="path10660"
       sodipodi:type="arc"
       sodipodi:cx="509.60648"
       sodipodi:cy="710.58551"
       sodipodi:rx="47.688824"
       sodipodi:ry="24.511814"
       sodipodi:start="0"
       sodipodi:end="3.1415927"
       sodipodi:open="true"
       d="m 557.2953,710.58551 a 47.688824,24.511814 0 0 1 -23.84441,21.22785 47.688824,24.511814 0 0 1 -47.68883,0 47.688824,24.511814 0 0 1 -23.84441,-21.22785" />
    <path
       style="opacity:1;fill:#008000;fill-opacity:1;fill-rule:nonzero;stroke:#6464ff;stroke-width:0;stroke-miterlimit:0;stroke-dasharray:none;stroke-opacity:1"
       id="path10662"
       sodipodi:type="arc"
       sodipodi:cx="588.45831"
       sodipodi:cy="710.58551"
       sodipodi:rx="47.688824"
       sodipodi:ry="24.511814"
       sodipodi:start="0"
       sodipodi:end="3.1415927"
       sodipodi:open="true"
       d="m 636.14714,710.58551 a 47.688824,24.511814 0 0 1 -23.84442,21.22785 47.688824,24.511814 0 0 1 -47.68882,0 47.688824,24.511814 0 0 1 -23.84441,-21.22785" />
    <path
       d="m 705.79167,710.58551 a 47.688824,24.511814 0 0 1 -23.84441,21.22785 47.688824,24.511814 0 0 1 -47.68883,0 47.688824,24.511814 0 0 1 -23.84441,-21.22785"
       sodipodi:open="true"
       sodipodi:end="3.1415927"
       sodipodi:start="0"
       sodipodi:ry="24.511814"
       sodipodi:rx="47.688824"
       sodipodi:cy="710.58551"
       sodipodi:cx="658.10284"
       sodipodi:type="arc"
       id="path10664"
       style="opacity:1;fill:#008000;fill-opacity:1;fill-rule:nonzero;stroke:#6464ff;stroke-width:0;stroke-miterlimit:0;stroke-dasharray:none;stroke-opacity:1" />
    <path
       style="opacity:1;fill:#008000;fill-opacity:1;fill-rule:nonzero;stroke:#6464ff;stroke-width:0;stroke-miterlimit:0;stroke-dasharray:none;stroke-opacity:1"
       id="path10666"
       sodipodi:type="arc"
       sodipodi:cx="1015.175"
       sodipodi:cy="710.58551"
       sodipodi:rx="47.688824"
       sodipodi:ry="24.511814"
       sodipodi:start="0"
       sodipodi:end="3.1415927"
       sodipodi:open="true"
       d="m 1062.8638,710.58551 a 47.688824,24.511814 0 0 1 -23.8444,21.22785 47.688824,24.511814 0 0 1 -47.68883,0 47.688824,24.511814 0 0 1 -23.84441,-21.22785" />
    <path
       d="m 1132.5084,710.58551 a 47.688824,24.511814 0 0 1 -23.8444,21.22785 47.688824,24.511814 0 0 1 -47.6888,0 47.688824,24.511814 0 0 1 -23.8444,-21.22785"
       sodipodi:open="true"
       sodipodi:end="3.1415927"
       sodipodi:start="0"
       sodipodi:ry="24.511814"
       sodipodi:rx="47.688824"
       sodipodi:cy="710.58551"
       sodipodi:cx="1084.8196"
       sodipodi:type="arc"
       id="path10668"
       style="opacity:1;fill:#008000;fill-opacity:1;fill-rule:nonzero;stroke:#6464ff;stroke-width:0;stroke-miterlimit:0;stroke-dasharray:none;stroke-opacity:1" />
    <path
       d="m 1211.3603,710.58551 a 47.688824,24.511814 0 0 1 -23.8444,21.22785 47.688824,24.511814 0 0 1 -47.6888,0 47.688824,24.511814 0 0 1 -23.8444,-21.22785"
       sodipodi:open="true"
       sodipodi:end="3.1415927"
       sodipodi:start="0"
       sodipodi:ry="24.511814"
       sodipodi:rx="47.688824"
       sodipodi:cy="710.58551"
       sodipodi:cx="1163.6715"
       sodipodi:type="arc"
       id="path10670"
       style="opacity:1;fill:#008000;fill-opacity:1;fill-rule:nonzero;stroke:#6464ff;stroke-width:0;stroke-miterlimit:0;stroke-dasharray:none;stroke-opacity:1" />
  </g>
  <g
     inkscape:groupmode="layer"
     id="layer3"
     inkscape:label="cloud_g_1"
     style="display:inline">
    <ellipse
       style="display:inline;opacity:0.71100003;fill:#ffffff;fill-opacity:1;fill-rule:nonzero;stroke:#6464ff;stroke-width:1.99039757;stroke-miterlimit:1;stroke-dasharray:none;stroke-opacity:1;filter:url(#filter6763)"
       id="path6341"
       cx="-74.061775"
       cy="62.403057"
       rx="350.55908"
       ry="130.84248"
       transform="matrix(0.38410779,0,0,0.31500542,-225.26739,231.79383)" />
    <ellipse
       style="display:inline;opacity:0.71100003;fill:#ffffff;fill-opacity:1;fill-rule:nonzero;stroke:#6464ff;stroke-width:1.99039757;stroke-miterlimit:1;stroke-dasharray:none;stroke-opacity:1;filter:url(#filter6759)"
       id="path6343"
       cx="259.21625"
       cy="-121.51704"
       rx="340.6842"
       ry="146.88921"
       transform="matrix(0.38410779,0,0,0.31500542,-225.26739,231.79383)" />
    <ellipse
       style="display:inline;opacity:0.71100003;fill:#ffffff;fill-opacity:1;fill-rule:nonzero;stroke:#6464ff;stroke-width:1.99039757;stroke-miterlimit:1;stroke-dasharray:none;stroke-opacity:1;filter:url(#filter6755)"
       id="path6345"
       cx="-341.91858"
       cy="-85.720535"
       rx="332.04364"
       ry="175.27954"
       transform="matrix(0.38410779,0,0,0.31500542,-225.26739,231.79383)" />
    <ellipse
       transform="translate(0,-302.36218)"
       style="display:inline;opacity:0.71100003;fill:#ffffff;fill-opacity:1;fill-rule:nonzero;stroke:#6464ff;stroke-width:1;stroke-miterlimit:1;stroke-dasharray:none;stroke-opacity:1;filter:url(#filter7117)"
       id="path6767"
       cx="927.00665"
       cy="425.30576"
       rx="265.38806"
       ry="56.780701" />
    <ellipse
       transform="translate(0,-302.36218)"
       style="display:inline;opacity:0.71100003;fill:#ffffff;fill-opacity:1;fill-rule:nonzero;stroke:#6464ff;stroke-width:1;stroke-miterlimit:1;stroke-dasharray:none;stroke-opacity:1;filter:url(#filter7179)"
       id="path7121"
       cx="1189.9259"
       cy="338.90033"
       rx="140.71738"
       ry="34.562164" />
  </g>
  <g
     inkscape:groupmode="layer"
     id="layer4"
     inkscape:label="cloud_g_2"
     style="display:inline">
    <ellipse
       style="display:inline;opacity:0.71100003;fill:#ffffff;fill-opacity:1;fill-rule:nonzero;stroke:#6464ff;stroke-width:1;stroke-miterlimit:1;stroke-dasharray:none;stroke-opacity:1;filter:url(#filter7539)"
       id="path7183"
       cx="216.01353"
       cy="301.86948"
       rx="50.608883"
       ry="14.812356"
       transform="translate(0,-302.36218)" />
    <ellipse
       style="display:inline;opacity:0.71100003;fill:#ffffff;fill-opacity:1;fill-rule:nonzero;stroke:#6464ff;stroke-width:1;stroke-miterlimit:1;stroke-dasharray:none;stroke-opacity:1;filter:url(#filter8141)"
       id="path7185"
       cx="162.9359"
       cy="312.97873"
       rx="34.562164"
       ry="11.109267"
       transform="translate(0,-302.36218)" />
    <ellipse
       style="opacity:0.71100003;fill:#ffffff;fill-opacity:1;fill-rule:nonzero;stroke:#6464ff;stroke-width:1;stroke-miterlimit:1;stroke-dasharray:none;stroke-opacity:1;filter:url(#filter8372)"
       id="path8190"
       cx="851.71051"
       cy="219.22391"
       rx="56.780697"
       ry="9.8749037" />
  </g>
</svg>
