<?xml version="1.0" encoding="UTF-8" standalone="no"?>
<svg
   xmlns:dc="http://purl.org/dc/elements/1.1/"
   xmlns:cc="http://creativecommons.org/ns#"
   xmlns:rdf="http://www.w3.org/1999/02/22-rdf-syntax-ns#"
   xmlns:svg="http://www.w3.org/2000/svg"
   xmlns="http://www.w3.org/2000/svg"
   version="1.1"
   id="svg2"
   viewBox="0 0 744.09448819 1052.3622047"
   height="297mm"
   width="210mm">
  <defs
     id="defs4" />
  <metadata
     id="metadata7">
    <rdf:RDF>
      <cc:Work
         rdf:about="">
        <dc:format>image/svg+xml</dc:format>
        <dc:type
           rdf:resource="http://purl.org/dc/dcmitype/StillImage" />
        <dc:title></dc:title>
      </cc:Work>
    </rdf:RDF>
  </metadata>
  <g
     id="layer1">
    <g
       style="fill:#ffff00;fill-opacity:0.56804732"
       id="g5272">
      <path
         points="389.80118,829.84534 457.46628,797.57397 245.38476,674.08576 170.6706,667.82271 "
         d="M 170.6706,667.82271 389.80118,829.84534 457.46628,797.57397 245.38476,674.08576 Z"
         style="fill:#afafde;fill-rule:evenodd;stroke:none;stroke-width:1px;stroke-linecap:butt;stroke-linejoin:round;stroke-opacity:1"
         id="path5282" />
      <path
         points="170.6706,667.82271 245.38476,674.08576 319.14434,429.81411 258.1869,377.9925 "
         d="m 258.1869,377.9925 -87.5163,289.83021 74.71416,6.26305 73.75958,-244.27165 z"
         style="fill:#353564;fill-rule:evenodd;stroke:none;stroke-width:1px;stroke-linecap:butt;stroke-linejoin:round;stroke-opacity:1"
         id="path5274" />
      <path
         points="581.40675,387.11681 457.46628,797.57397 245.38476,674.08576 319.14434,429.81411 "
         d="M 319.14434,429.81411 581.40675,387.11681 457.46628,797.57397 245.38476,674.08576 Z"
         style="fill:#e9e9ff;fill-rule:evenodd;stroke:none;stroke-width:1px;stroke-linecap:butt;stroke-linejoin:round;stroke-opacity:1"
         id="path5284" />
      <path
         points="558.22879,272.0589 581.40675,387.11681 319.14434,429.81411 258.1869,377.9925 "
         d="m 258.1869,377.9925 300.04189,-105.9336 23.17796,115.05791 -262.26241,42.6973 z"
         style="fill:#4d4d9f;fill-rule:evenodd;stroke:none;stroke-width:1px;stroke-linecap:butt;stroke-linejoin:round;stroke-opacity:1"
         id="path5276" />
      <path
         points="389.80118,829.84534 457.46628,797.57397 581.40675,387.11681 558.22879,272.0589 "
         d="M 558.22879,272.0589 389.80118,829.84534 457.46628,797.57397 581.40675,387.11681 Z"
         style="fill:#d7d7ff;fill-rule:evenodd;stroke:none;stroke-width:1px;stroke-linecap:butt;stroke-linejoin:round;stroke-opacity:1"
         id="path5280" />
      <path
         points="558.22879,272.0589 389.80118,829.84534 170.6706,667.82271 258.1869,377.9925 "
         d="M 258.1869,377.9925 558.22879,272.0589 389.80118,829.84534 170.6706,667.82271 Z"
         style="fill:#8686bf;fill-rule:evenodd;stroke:none;stroke-width:1px;stroke-linecap:butt;stroke-linejoin:round;stroke-opacity:1"
         id="path5278" />
    </g>
  </g>
</svg>
